# xmcd
#
# Track frame offsets:
# 150
# 13186
# 24139
# 38974
# 50036
# 62530
# 75944
# 89510
# 100933
# 112689
# 123204
# 137914
#
# Disc length: 2046 seconds
#
#
# Revision: 0
# Processed by: cddbd v1.5.1PL2 Copyright (c) Steve Scherf et al.
# Submitted via: FreeRIP 2.945 
#
DISCID=8d07fc0c
DTITLE=Elmore James - Red Hot Blues
DYEAR=1900
DGENRE=Blues
TTITLE0=01 Dust my broom
TTITLE1=02 Look on Yonder Wall
TTITLE2=03 It Hurts me too
TTITLE3=04 Coming home
TTITLE4=05 The Sky is crying
TTITLE5=06 I Believe
TTITLE6=07 Hand in Hand
TTITLE7=08 Rollin' and Tumblin'
TTITLE8=09 Mean mistreatin' mama
TTITLE9=10 I Done somebody wrong
TTITLE10=11 Pikin' the blues
TTITLE11=12 Stading at the crossroads
EXTD=Compilatorio by pilz entertainment 1993
EXTT0=(Elmore James)
EXTT1=(Elmore James)
EXTT2=(Elmore James)
EXTT3=(Elmore James)
EXTT4=(James, Lewis, B. Robinson)
EXTT5=(James, Josea, Taub, Ling)
EXTT6=(Elmore James)
EXTT7=(James, B. Robinson)
EXTT8=(Elmore James)
EXTT9=(James, B. Robinson)
EXTT10=(James, B. Robinson)
EXTT11=(Elmore James)
PLAYORDER=
